<svg xmlns="http://www.w3.org/2000/svg" viewBox="0 0 1200 800" fill="none" role="img" aria-labelledby="title desc"><title id="title">Assistive vision pipeline</title><desc id="desc">A conceptual road-scene detection with highlighted hazards and speech translation stages.</desc><defs><linearGradient id="bg" x1="78" y1="24" x2="1114" y2="764" gradientUnits="userSpaceOnUse"><stop stop-color="#F4F3EF"/><stop offset="1" stop-color="#E9E9E5"/></linearGradient><linearGradient id="road" x1="661" y1="281" x2="664" y2="608" gradientUnits="userSpaceOnUse"><stop stop-color="#858A84"/><stop offset="1" stop-color="#444944"/></linearGradient><filter id="shadow" x="140" y="117" width="920" height="570" filterUnits="userSpaceOnUse"><feDropShadow dx="0" dy="20" stdDeviation="24" flood-color="#333832" flood-opacity=".12"/></filter></defs><rect width="1200" height="800" rx="32" fill="url(#bg)"/><text x="72" y="94" fill="#73746F" font-family="Arial,sans-serif" font-size="14" letter-spacing="3">EDGE AI · COMPUTER VISION</text><g filter="url(#shadow)"><rect x="164" y="135" width="872" height="520" rx="23" fill="#FBFBF9"/></g><path d="M164 205h872" stroke="#E7E7E2"/><circle cx="200" cy="171" r="5" fill="#D6D6D0"/><circle cx="218" cy="171" r="5" fill="#D6D6D0"/><circle cx="236" cy="171" r="5" fill="#D6D6D0"/><text x="274" y="177" fill="#474943" font-family="Arial,sans-serif" font-size="14" font-weight="700" letter-spacing="1.2">INTELLIGENT ASSISTIVE VISION</text><rect x="192" y="230" width="560" height="368" rx="16" fill="#DCE0D7"/><path d="M192 455 388 352h179l185 103v143H192V455Z" fill="#AEB5AC"/><path d="m423 359 63-127h98l95 366H346l78-239Z" fill="url(#road)"/><path d="m539 420 14-43m-27 130 18-55m-35 110 14-42" stroke="#E7E4D8" stroke-width="7" stroke-linecap="round"/><path d="M218 445 340 371m321 0 126 74" stroke="#889189" stroke-width="3"/><path d="M197 393h550" stroke="#E7E9E3" stroke-width="2"/><path d="M420 409h84v125h-84z" stroke="#F6E9BF" stroke-width="3"/><path d="M420 409h26" stroke="#F6E9BF" stroke-width="6"/><text x="430" y="433" fill="#FFFDF7" font-family="Arial,sans-serif" font-size="11">PERSON</text><path d="M569 367h91v96h-91z" stroke="#D7E5D4" stroke-width="3"/><path d="M569 367h28" stroke="#D7E5D4" stroke-width="6"/><text x="580" y="391" fill="#FFFDF7" font-family="Arial,sans-serif" font-size="11">CROSSING</text><rect x="783" y="230" width="224" height="368" rx="17" fill="#F0F0EB"/><text x="810" y="274" fill="#85867F" font-family="Arial,sans-serif" font-size="12" letter-spacing="1.4">SIGNALS, IN CONTEXT</text><circle cx="821" cy="322" r="16" fill="#E4E3DA"/><path d="m814 322 5 5 10-11" stroke="#545A51" stroke-width="2" stroke-linecap="round" stroke-linejoin="round"/><text x="850" y="319" fill="#32352F" font-family="Arial,sans-serif" font-size="14" font-weight="600">YOLOv11-nano</text><text x="850" y="338" fill="#83847D" font-family="Arial,sans-serif" font-size="12">13 hazard classes</text><path d="M810 361h170" stroke="#E0E0D9"/><circle cx="821" cy="397" r="16" fill="#E5E7E1"/><path d="M817 390v13l11-6-11-7Z" fill="#626A61"/><text x="850" y="394" fill="#32352F" font-family="Arial,sans-serif" font-size="14" font-weight="600">BLIP captioning</text><text x="850" y="413" fill="#83847D" font-family="Arial,sans-serif" font-size="12">Background worker</text><path d="M810 436h170" stroke="#E0E0D9"/><circle cx="821" cy="472" r="16" fill="#DDE5DA"/><path d="M814 470h3l4-5v14l-4-5h-3v-4Zm10-3 4 10m0-10-4 10" stroke="#596C59" stroke-width="1.6" stroke-linecap="round"/><text x="850" y="469" fill="#32352F" font-family="Arial,sans-serif" font-size="14" font-weight="600">Voice feedback</text><text x="850" y="488" fill="#83847D" font-family="Arial,sans-serif" font-size="12">5 languages · 5s debounce</text><rect x="810" y="526" width="170" height="42" rx="12" fill="#292D28"/><text x="895" y="552" fill="#F4F3EE" font-family="Arial,sans-serif" font-size="13" text-anchor="middle">CAMERA → ALERT</text><text x="73" y="742" fill="#65665F" font-family="Arial,sans-serif" font-size="13" letter-spacing="1.4">ESP32-CAM · THREADED CAPTIONING · MULTILINGUAL AUDIO</text><text x="1126" y="742" fill="#96978F" font-family="Arial,sans-serif" font-size="12" text-anchor="end">03 / 06</text></svg>